# xmcd
#
# Track frame offsets: 
#        150
#        17412
#        29742
#        49612
#        59802
#        73012
#        85622
#        96857
#        109180
#        122237
#        136675
#        154685
#        167082
#        180297
#
# Disc length: 2587 seconds
#
# Revision: 8
# Processed by: cddbd v1.5.2PL0 Copyright (c) Steve Scherf et al.
# Submitted via: ExactAudioCopyFreeDBPlugin 1.0
#
DISCID=b40a190e
DTITLE=Tom Astor - Ein Mann der Straﬂe
DYEAR=1991
DGENRE=Country
TTITLE0=Meine Antwort ist die groﬂe Autobahn
TTITLE1=Kopf hoch Mann
TTITLE2=Daddy , wenn ich groﬂ bin fahr ich Diesel
TTITLE3=Ihr Leben das ist ihr Laster
TTITLE4=Amanda
TTITLE5=Truckstop Mama
TTITLE6=Ist lange her
TTITLE7=Radweschel
TTITLE8=Ein richtiger Mann ist immer unterwegs
TTITLE9=Ich bin ein ein Gefangener der Autobahn
TTITLE10=Lucille
TTITLE11=Dieser Hintern hat das Zeug zu einem Weltstar
TTITLE12=Buchstabiere LKW
TTITLE13=Gebet eines Truckers
EXTD=
EXTT0=
EXTT1=
EXTT2=
EXTT3=
EXTT4=
EXTT5=
EXTT6=
EXTT7=
EXTT8=
EXTT9=
EXTT10=
EXTT11=
EXTT12=
EXTT13=
PLAYORDER=
